<svg id="Capa_1" enable-background="new 0 0 512 512" height="512" viewBox="0 0 512 512" width="512" xmlns="http://www.w3.org/2000/svg"><g><path d="m256 90.375c-91.326 0-165.625 74.299-165.625 165.625s74.299 165.625 165.625 165.625 165.625-74.299 165.625-165.625-74.299-165.625-165.625-165.625zm112.696 90.25c6.262 9.332 11.391 19.481 15.201 30.25h-38.535c-8.154 0-14.788-6.634-14.788-14.787 0-8.526 6.937-15.463 15.463-15.463zm-198.644-29.461c6.186 1.898 10.698 7.661 10.698 14.461 0 24.882 20.243 45.125 45.125 45.125 8.34 0 15.125 6.785 15.125 15.125s-6.785 15.125-15.125 15.125h-30.125c-24.882 0-45.125 20.243-45.125 45.125 0 8.34-6.785 15.125-15.125 15.125h-7.353c-5.026-14.159-7.772-29.389-7.772-45.25 0-42.192 19.368-79.942 49.677-104.836zm-27.228 179.482c21.41-3.511 37.801-22.134 37.801-44.521 0-8.34 6.785-15.125 15.125-15.125h30.125c24.882 0 45.125-20.243 45.125-45.125s-20.243-45.125-45.125-45.125c-8.34 0-15.125-6.785-15.125-15.125 0-12.471-5.087-23.775-13.293-31.951 17.732-8.521 37.59-13.299 58.543-13.299 32.412 0 62.2 11.434 85.556 30.473-22.972 2.259-40.981 21.684-40.981 45.24 0 24.695 20.092 44.787 44.788 44.787h45.415c.554 4.968.848 10.012.848 15.125s-.294 10.157-.848 15.125h-74.528c-24.882 0-45.125 20.243-45.125 45.125 0 8.34-6.785 15.125-15.125 15.125h-30.125c-22.387 0-41.011 16.391-44.521 37.801-15.287-10.117-28.413-23.243-38.53-38.53zm113.176 60.979c-15.861 0-31.091-2.746-45.25-7.772v-7.353c0-8.34 6.785-15.125 15.125-15.125h30.125c24.882 0 45.125-20.243 45.125-45.125 0-8.34 6.785-15.125 15.125-15.125h67.647c-18.637 52.666-68.927 90.5-127.897 90.5z"/></g><path d="m512 303.5v-95h-34.95c-1.582-7.386-3.539-14.697-5.857-21.893l30.26-17.471-47.5-82.272-30.312 17.5c-5.064-5.595-10.41-10.94-16.005-16.004l17.501-30.312-82.271-47.5-17.471 30.26c-7.195-2.319-14.507-4.275-21.894-5.858v-34.95h-95v34.95c-7.387 1.583-14.698 3.539-21.894 5.858l-17.471-30.26-82.271 47.5 17.501 30.312c-5.595 5.064-10.94 10.41-16.005 16.004l-30.312-17.5-47.5 82.272 30.26 17.471c-2.318 7.196-4.275 14.507-5.857 21.893h-34.952v95h34.95c1.582 7.386 3.539 14.698 5.857 21.893l-30.26 17.471 47.5 82.272 30.312-17.501c5.064 5.595 10.41 10.94 16.005 16.005l-17.501 30.312 82.271 47.5 17.471-30.261c7.194 2.318 14.508 4.275 21.894 5.858v34.951h95v-34.95c7.386-1.583 14.699-3.54 21.894-5.858l17.471 30.261 82.271-47.5-17.501-30.312c5.595-5.065 10.94-10.41 16.005-16.005l30.312 17.501 47.5-82.272-30.26-17.471c2.318-7.195 4.275-14.507 5.857-21.893h34.952zm-51.528 50.345-17.5 30.311-26.24-15.15c-13.395 17.832-30.281 34.66-47.727 47.726l15.15 26.241-30.311 17.5-15.129-26.206c-20.52 8.783-43.637 14.91-65.216 17.442v30.291h-35v-30.291c-22.15-2.627-45.241-8.863-65.216-17.442l-15.129 26.206-30.311-17.5 15.15-26.241c-17.833-13.395-34.659-30.282-47.727-47.726l-26.24 15.15-17.5-30.311 26.204-15.13c-8.782-20.522-14.909-43.638-17.44-65.215h-30.29v-35h30.292c2.627-22.148 8.861-45.239 17.441-65.215l-26.205-15.129 17.5-30.311 26.24 15.15c13.396-17.832 30.282-34.66 47.727-47.725l-15.15-26.241 30.311-17.5 15.129 26.205c20.522-8.782 43.638-14.91 65.216-17.442v-30.292h35v30.291c22.149 2.627 45.239 8.864 65.216 17.442l15.129-26.205 30.311 17.5-15.15 26.241c17.832 13.394 34.659 30.281 47.727 47.725l26.24-15.15 17.5 30.311-26.205 15.129c8.784 20.521 14.91 43.638 17.441 65.215h30.29v35h-30.292c-2.626 22.148-8.862 45.238-17.44 65.215z"/></svg>